# File created by Blade
# Date/Time:  Fri Jan 16 17:52:57 2015
#---------------------------------------------------------
:version 1.10
:name HOM
:units
  mass 1.0
  length 1.000000
  angle deg
:documentation
     Acclaim Skeleton File
:root
   axis xyz
   order TX TY TZ RX RY RZ
   position 0.000000 0.000000 0.000000
   orientation 0 0 0
:bonedata
   begin
      id 1
      name Spine_dum
      direction 0.000000 1.000000 0.000000
      length 7.170412
      axis 0.0 0.0 0.0 xyz
   end
   begin
      id 2
      name LeftUpLeg_dum
      direction 1.000000 0.000000 0.000000
      length 4.318350
      axis 0.0 0.0 0.0 xyz
   end
   begin
      id 3
      name RightUpLeg_dum
      direction -1.000000 0.000000 0.000000
      length 4.318350
      axis 0.0 0.0 0.0 xyz
   end
   begin
      id 4
      name Spine
      direction 0.000000 1.000000 0.000000
      length 0.000000
      axis 0.0 0.0 0.0 xyz
      dof rx ry rz
   end
   begin
      id 5
      name Spine_dum1
      direction 0.000000 1.000000 0.000000
      length 14.276153
      axis 0.0 0.0 0.0 xyz
   end
   begin
      id 6
      name Spine_dum2
      direction 0.000000 1.000000 0.000000
      length 10.718243
      axis 0.0 0.0 0.0 xyz
   end
   begin
      id 7
      name Spine_dum3
      direction 0.000000 1.000000 0.000000
      length 10.718243
      axis 0.0 0.0 0.0 xyz
   end
   begin
      id 8
      name Head
      direction 0.000000 1.000000 0.000000
      length 4.527550
      axis 0.0 0.0 0.0 xyz
      dof rx ry rz
   end
   begin
      id 9
      name LeftShoulder
      direction 1.000000 0.000000 0.000000
      length 7.058872
      axis 0.0 0.0 -90.0 xyz
      dof rx ry rz
   end
   begin
      id 10
      name LeftArm
      direction 1.000000 0.000000 0.000000
      length 10.955525
      axis 0.0 0.0 -90.0 xyz
      dof rx ry rz
   end
   begin
      id 11
      name LeftForeArm
      direction 1.000000 0.000000 0.000000
      length 8.193716
      axis 0.0 0.0 -90.0 xyz
      dof ry rz rx
   end
   begin
      id 12
      name LeftHand
      direction 0.000000 0.000000 0.000000
      length 0.000000
      axis 0.0 0.0 -90.0 xyz
      dof rx ry rz
   end
   begin
      id 13
      name LeftHand_dum1
      direction 0.000000 0.000000 0.000000
      length 0.000000
      axis 0.0 0.0 -90.0 xyz
   end
   begin
      id 14
      name LeftHand_dum2
      direction 1.000000 0.000000 0.000000
      length 3.937000
      axis 0.0 0.0 -90.0 xyz
   end
   begin
      id 15
      name LeftHandThumb1
      direction 0.000000 0.000000 1.000000
      length 3.937000
      axis 0.0 0.0 -90.0 xyz
      dof rx rz ry
   end
   begin
      id 16
      name RightShoulder
      direction -1.000000 0.000000 0.000000
      length 7.058872
      axis 0.0 0.0 90.0 xyz
      dof rx ry rz
   end
   begin
      id 17
      name RightArm
      direction -1.000000 0.000000 0.000000
      length 10.955525
      axis 0.0 0.0 90.0 xyz
      dof rx ry rz
   end
   begin
      id 18
      name RightForeArm
      direction -1.000000 0.000000 0.000000
      length 8.193716
      axis 0.0 0.0 90.0 xyz
      dof ry rz rx
   end
   begin
      id 19
      name RightHand
      direction 0.000000 0.000000 0.000000
      length 0.000000
      axis 0.0 0.0 90.0 xyz
      dof rx ry rz
   end
   begin
      id 20
      name RightHand_dum1
      direction 0.000000 0.000000 0.000000
      length 0.000000
      axis 0.0 0.0 90.0 xyz
   end
   begin
      id 21
      name RightHand_dum2
      direction -1.000000 0.000000 0.000000
      length 3.937000
      axis 0.0 0.0 90.0 xyz
   end
   begin
      id 22
      name RightHandThumb1
      direction 0.000000 0.000000 1.000000
      length 3.937000
      axis 0.0 0.0 90.0 xyz
      dof rx rz ry
   end
   begin
      id 23
      name LeftUpLeg
      direction 0.000000 -1.000000 0.000000
      length 17.323638
      axis 0.0 0.0 0.0 xyz
      dof rx ry rz
   end
   begin
      id 24
      name LeftLeg
      direction 0.000000 -1.000000 0.000000
      length 16.270368
      axis 0.0 0.0 0.0 xyz
      dof rx ry rz
   end
   begin
      id 25
      name LeftFoot
      direction 0.000000 -0.258819 0.965926
      length 4.922846
      axis 15.0 0.0 0.0 xyz
      dof rx ry rz
   end
   begin
      id 26
      name LeftToeBase
      direction 0.000000 0.000000 1.000000
      length 2.952750
      axis 0.0 0.0 0.0 xyz
      dof rx ry rz
   end
   begin
      id 27
      name RightUpLeg
      direction 0.000000 -1.000000 0.000000
      length 17.323638
      axis 0.0 0.0 0.0 xyz
      dof rx ry rz
   end
   begin
      id 28
      name RightLeg
      direction 0.000000 -1.000000 0.000000
      length 16.270368
      axis 0.0 0.0 0.0 xyz
      dof rx ry rz
   end
   begin
      id 29
      name RightFoot
      direction 0.000000 -0.258819 0.965926
      length 4.922846
      axis 15.0 0.0 0.0 xyz
      dof rx ry rz
   end
   begin
      id 30
      name RightToeBase
      direction 0.000000 0.000000 1.000000
      length 2.952750
      axis 0.0 0.0 0.0 xyz
      dof rx ry rz
   end
:hierarchy
   begin
      root Spine_dum LeftUpLeg_dum RightUpLeg_dum
      Spine_dum Spine
      LeftUpLeg_dum LeftUpLeg
      RightUpLeg_dum RightUpLeg
      Spine Spine_dum1 Spine_dum2 Spine_dum3
      Spine_dum1 Head
      Spine_dum2 LeftShoulder
      Spine_dum3 RightShoulder
      LeftShoulder LeftArm
      LeftArm LeftForeArm
      LeftForeArm LeftHand
      LeftHand LeftHand_dum1 LeftHand_dum2
      LeftHand_dum1 LeftHandThumb1
      RightShoulder RightArm
      RightArm RightForeArm
      RightForeArm RightHand
      RightHand RightHand_dum1 RightHand_dum2
      RightHand_dum1 RightHandThumb1
      LeftUpLeg LeftLeg
      LeftLeg LeftFoot
      LeftFoot LeftToeBase
      RightUpLeg RightLeg
      RightLeg RightFoot
      RightFoot RightToeBase
   end

# File created by Blade
# Date/Time:  Fri Jan 16 17:53:05 2015
# Frame Rate: 120.000 fps
#------------------------------------------------------
:FULLY-SPECIFIED
:DEGREES
1665
root -1.957111 35.577767 -11.489273 -8.790601 20.211773 -13.079163
Spine 2.841235 -20.924905 10.569786
Head 12.559047 -5.459105 -4.586527
LeftShoulder -19.060313 14.009080 -7.071428
LeftArm 30.764161 -14.181714 -70.773648
LeftForeArm 6.740856 0.000000 119.423592
LeftHand 3.508599 -0.000000 13.950361
LeftHandThumb1 -26.253704 0.000000 33.147579
RightShoulder -6.972199 -8.195502 0.177815
RightArm -1.822299 -24.197252 76.173188
RightForeArm -15.893680 -0.000000 16.891476
RightHand 0.445808 -0.000000 6.198837
RightHandThumb1 -24.326973 -0.000000 -32.862282
LeftUpLeg 12.915359 -6.973898 -0.371404
LeftLeg -6.332800 -0.000000 0.000000
LeftFoot -13.651311 20.677073 -4.919268
LeftToeBase 20.035748 -0.000000 -0.000000
RightUpLeg -7.164240 39.442030 3.737802
RightLeg 103.533990 -0.000000 -0.000000
RightFoot -1.427573 -27.336278 -9.965132
RightToeBase -19.515425 -0.000000 0.000000
1666
root -1.954847 35.575250 -11.491665 -8.813026 20.172553 -13.053021
Spine 2.905601 -20.873792 10.503405
Head 12.552516 -5.440297 -4.629628
LeftShoulder -19.023921 14.006377 -7.066488
LeftArm 30.781436 -14.186998 -70.783847
LeftForeArm 6.785919 -0.000000 119.493679
LeftHand 3.468003 -0.000000 13.911929
LeftHandThumb1 -26.253704 0.000000 33.147579
RightShoulder -6.991081 -8.346644 0.144134
RightArm -1.634509 -24.195298 76.176802
RightForeArm -15.904268 0.000000 16.888171
RightHand 0.492497 -0.000000 6.492977
RightHandThumb1 -24.326973 -0.000000 -32.862282
LeftUpLeg 12.953927 -6.885378 -0.400217
LeftLeg -6.352763 -0.000000 0.000000
LeftFoot -13.676284 20.696168 -4.951019
LeftToeBase 20.132135 -0.000000 -0.000000
RightUpLeg -7.143141 39.095621 3.692650
RightLeg 103.718851 -0.000000 -0.000000
RightFoot -1.181519 -27.710779 -9.923519
RightToeBase -19.471773 -0.000000 0.000000
1667
root -1.957822 35.572599 -11.493856 -8.828951 20.106774 -13.024566
Spine 2.977796 -20.801119 10.420474
Head 12.539873 -5.453444 -4.670563
LeftShoulder -19.004490 14.008277 -7.057247
LeftArm 30.810012 -14.203679 -70.768543
LeftForeArm 6.822750 -0.000000 119.546990
LeftHand 3.470912 -0.000000 13.896341
LeftHandThumb1 -26.253704 0.000000 33.147579
RightShoulder -6.977335 -8.474734 0.151579
RightArm -1.507930 -24.330914 76.129106
RightForeArm -15.723525 -0.000000 16.966805
RightHand 0.527478 0.000000 6.585553
RightHandThumb1 -24.326973 -0.000000 -32.862282
LeftUpLeg 12.979181 -6.752311 -0.409100
LeftLeg -6.352309 -0.000000 0.000000
LeftFoot -13.682933 20.672182 -4.932319
LeftToeBase 20.143175 -0.000000 -0.000000
RightUpLeg -7.135150 38.742711 3.657987
RightLeg 103.896937 -0.000000 -0.000000
RightFoot -0.941956 -28.106964 -9.923193
RightToeBase -19.615431 -0.000000 0.000000
1668
root -1.963286 35.569931 -11.494634 -8.843344 20.065897 -13.001465
Spine 3.039151 -20.757036 10.330974
Head 12.530815 -5.443291 -4.688040
LeftShoulder -19.015747 13.993606 -7.038147
LeftArm 30.835132 -14.163856 -70.794162
LeftForeArm 6.935167 -0.000000 119.621013
LeftHand 3.266827 -0.000000 14.065197
LeftHandThumb1 -26.253704 0.000000 33.147579
RightShoulder -6.970968 -8.476619 0.163640
RightArm -1.501912 -24.341497 76.153819
RightForeArm -15.694808 -0.000000 16.989912
RightHand 0.541326 -0.000000 6.615263
RightHandThumb1 -24.326973 -0.000000 -32.862282
LeftUpLeg 13.000974 -6.650239 -0.410195
LeftLeg -6.353968 -0.000000 0.000000
LeftFoot -13.705487 20.637002 -4.908181
LeftToeBase 20.171903 -0.000000 -0.000000
RightUpLeg -7.148168 38.290974 3.605489
RightLeg 104.050666 -0.000000 -0.000000
RightFoot -0.735437 -28.512745 -9.914925
RightToeBase -19.239234 -0.000000 0.000000
